# xmcd
#
# Track frame offsets:
#	150
#	7700
#	11523
#	20219
#	25830
#	38318
#	53024
#	60078
#	72601
#	81181
#
# Disc length: 1165 seconds
#
# Revision: 1
# Processed by: cddbd v1.5.2PL0 Copyright (c) Steve Scherf et al.
# Submitted via: audiograbber 1.83.01
#
DISCID=68048b0a
DTITLE=Restless Youth - Light Up Ahead
DYEAR=2006
DGENRE=Punk
TTITLE0=Cold Hearted
TTITLE1=Do You Mind?
TTITLE2=Light Up Ahead
TTITLE3=One Way Street
TTITLE4=Thieves
TTITLE5=Channel Zero
TTITLE6=Beyond Solitude
TTITLE7=Anywhere But Here
TTITLE8=Black and White
TTITLE9=Burning
EXTD=
EXTT0=
EXTT1=
EXTT2=
EXTT3=
EXTT4=
EXTT5=
EXTT6=
EXTT7=
EXTT8=
EXTT9=
PLAYORDER=
